<svg width="191" height="70" viewBox="0 0 191 70" fill="none" xmlns="http://www.w3.org/2000/svg">
<path d="M80.188 64.396C78.076 64.396 76.42 64.012 75.22 63.244C74.02 62.476 73.18 61.384 72.7 59.968C72.22 58.552 71.98 56.752 71.98 54.568V34.84H77.164V55.18C77.164 56.86 77.356 58.156 77.74 59.068C78.148 59.98 78.964 60.436 80.188 60.436C81.436 60.436 82.252 59.98 82.636 59.068C83.044 58.156 83.248 56.86 83.248 55.18V34.84H88.396V54.568C88.396 56.728 88.156 58.528 87.676 59.968C87.196 61.384 86.356 62.476 85.156 63.244C83.956 64.012 82.3 64.396 80.188 64.396ZM92.2626 43.192H97.1586V45.244C98.8146 43.66 100.495 42.868 102.199 42.868C103.375 42.868 104.251 43.3 104.827 44.164C105.427 45.028 105.727 46.12 105.727 47.44V64H100.831V48.412C100.831 47.74 100.723 47.248 100.507 46.936C100.315 46.624 99.9546 46.468 99.4266 46.468C98.8506 46.468 98.0946 46.804 97.1586 47.476V64H92.2626V43.192ZM109.457 35.812H114.353V39.88H109.457V35.812ZM109.457 43.192H114.353V64H109.457V43.192ZM116.839 43.192H121.591L123.715 58.132L125.803 43.192H130.519L126.379 64H120.943L116.839 43.192ZM139.098 64.324C136.794 64.324 135.102 63.688 134.022 62.416C132.942 61.12 132.402 59.212 132.402 56.692V50.5C132.402 47.956 132.942 46.048 134.022 44.776C135.126 43.504 136.818 42.868 139.098 42.868C141.45 42.868 143.106 43.528 144.066 44.848C145.05 46.168 145.542 48.16 145.542 50.824V53.812H137.262V57.916C137.262 58.924 137.406 59.656 137.694 60.112C138.006 60.568 138.486 60.796 139.134 60.796C139.758 60.796 140.202 60.58 140.466 60.148C140.754 59.692 140.898 59.008 140.898 58.096V56.332H145.506V57.772C145.506 59.908 144.966 61.54 143.886 62.668C142.806 63.772 141.21 64.324 139.098 64.324ZM140.898 51.4V49.42C140.898 48.34 140.766 47.572 140.502 47.116C140.238 46.636 139.77 46.396 139.098 46.396C138.402 46.396 137.922 46.648 137.658 47.152C137.394 47.656 137.262 48.592 137.262 49.96V51.4H140.898ZM148.972 43.192H153.868V46.396C154.564 45.172 155.272 44.296 155.992 43.768C156.712 43.216 157.516 42.94 158.404 42.94C158.716 42.94 158.968 42.964 159.16 43.012V48.088C158.392 47.8 157.72 47.656 157.144 47.656C155.848 47.656 154.756 48.328 153.868 49.672V64H148.972V43.192ZM167.208 64.324C165.456 64.324 164.016 63.856 162.888 62.92C161.76 61.984 160.956 60.616 160.476 58.816L164.112 57.412C164.664 59.74 165.672 60.904 167.136 60.904C167.688 60.904 168.108 60.76 168.396 60.472C168.708 60.184 168.864 59.788 168.864 59.284C168.864 58.732 168.696 58.228 168.36 57.772C168.024 57.292 167.424 56.692 166.56 55.972L164.076 53.812C163.02 52.948 162.24 52.108 161.736 51.292C161.232 50.476 160.98 49.48 160.98 48.304C160.98 46.672 161.532 45.364 162.636 44.38C163.764 43.372 165.18 42.868 166.884 42.868C168.516 42.868 169.848 43.36 170.88 44.344C171.912 45.304 172.584 46.612 172.896 48.268L169.692 49.636C169.5 48.676 169.176 47.896 168.72 47.296C168.288 46.672 167.724 46.36 167.028 46.36C166.524 46.36 166.116 46.516 165.804 46.828C165.516 47.14 165.372 47.536 165.372 48.016C165.372 48.4 165.54 48.808 165.876 49.24C166.212 49.672 166.716 50.176 167.388 50.752L169.908 53.056C170.988 53.992 171.816 54.892 172.392 55.756C172.992 56.596 173.292 57.616 173.292 58.816C173.292 60.568 172.716 61.924 171.564 62.884C170.436 63.844 168.984 64.324 167.208 64.324ZM182.27 64.324C179.966 64.324 178.274 63.688 177.194 62.416C176.114 61.12 175.574 59.212 175.574 56.692V50.5C175.574 47.956 176.114 46.048 177.194 44.776C178.298 43.504 179.99 42.868 182.27 42.868C184.622 42.868 186.278 43.528 187.238 44.848C188.222 46.168 188.714 48.16 188.714 50.824V53.812H180.434V57.916C180.434 58.924 180.578 59.656 180.866 60.112C181.178 60.568 181.658 60.796 182.306 60.796C182.93 60.796 183.374 60.58 183.638 60.148C183.926 59.692 184.07 59.008 184.07 58.096V56.332H188.678V57.772C188.678 59.908 188.138 61.54 187.058 62.668C185.978 63.772 184.382 64.324 182.27 64.324ZM184.07 51.4V49.42C184.07 48.34 183.938 47.572 183.674 47.116C183.41 46.636 182.942 46.396 182.27 46.396C181.574 46.396 181.094 46.648 180.83 47.152C180.566 47.656 180.434 48.592 180.434 49.96V51.4H184.07Z" fill="white"/>
<path d="M1.38346 70C2.14752 70 2.76692 69.3806 2.76692 68.6166C2.76692 67.8525 2.14752 67.2331 1.38346 67.2331C0.619396 67.2331 0 67.8525 0 68.6166C0 69.3806 0.619396 70 1.38346 70Z" fill="white"/>
<path d="M36.7188 34.9105C37.4814 34.9105 38.0996 34.2923 38.0996 33.5298C38.0996 32.7672 37.4814 32.149 36.7188 32.149C35.9563 32.149 35.3381 32.7672 35.3381 33.5298C35.3381 34.2923 35.9563 34.9105 36.7188 34.9105Z" fill="white"/>
<path d="M54.7991 16.0266C53.6892 14.9166 52.2134 14.3054 50.6438 14.3054C49.0741 14.3054 47.5982 14.9168 46.4884 16.0266C44.1972 18.318 44.1972 22.0462 46.4884 24.3374C47.6343 25.4831 49.1387 26.0558 50.6438 26.0558C52.1484 26.0558 53.6536 25.4828 54.7991 24.3374C57.0903 22.0461 57.0903 18.3179 54.7991 16.0266ZM52.8467 22.3848C51.632 23.5994 49.6554 23.5994 48.441 22.3848C47.2262 21.1702 47.2262 19.1937 48.441 17.979C49.0294 17.3906 49.8116 17.0666 50.6438 17.0666C51.4759 17.0666 52.2581 17.3906 52.8466 17.979C54.0613 19.1937 54.0613 21.1702 52.8467 22.3848Z" fill="white"/>
<path d="M17.2465 56.3777C16.5639 56.0377 15.7352 56.3157 15.3952 56.9982L13.7507 60.3008C13.0356 61.7366 11.5974 62.6968 9.99697 62.8062L8.08433 62.9372C7.76102 62.9588 7.54841 62.7977 7.45008 62.6994C7.35176 62.6011 7.19031 62.388 7.21231 62.065L7.34323 60.1525C7.45284 58.5522 8.41301 57.1138 9.84872 56.3987L13.1512 54.7543C13.8338 54.4143 14.1116 53.5855 13.7716 52.903C13.4318 52.2204 12.603 51.9425 11.9203 52.2825L8.61791 53.9269C6.30866 55.0769 4.76458 57.39 4.58828 59.9638L4.45736 61.8763C4.38667 62.9087 4.76568 63.9203 5.49729 64.6519C6.17087 65.3255 7.08194 65.7004 8.02808 65.7004C8.10936 65.7004 8.19118 65.6976 8.27287 65.692L10.1855 65.5611C12.7594 65.3849 15.0725 63.841 16.2224 61.5314L17.8669 58.229C18.2068 57.5463 17.929 56.7176 17.2465 56.3777Z" fill="white"/>
<path d="M69.4577 0.919685C68.8098 0.281451 67.9173 -0.0523122 67.0107 0.00668428L65.7252 0.0886467C54.1983 0.824521 43.4108 6.38848 36.1286 15.354L33.1026 19.0793L25.1838 18.8468C25.1703 18.8464 25.1567 18.8462 25.1433 18.8462C18.863 18.8462 12.9586 21.2919 8.51761 25.7327L0.406905 33.8436C0.0211588 34.2293 -0.101372 34.8062 0.0944574 35.3153C0.290287 35.8245 0.767485 36.1708 1.31234 36.1986L18.481 37.0807L17.781 37.9425C17.4283 38.3769 17.3724 38.9812 17.6399 39.4727C17.9089 39.9672 18.1908 40.4539 18.4848 40.9328L14.4134 45.7662C14.0653 46.1795 13.9904 46.7579 14.2213 47.2463C15.1106 49.1256 16.291 50.814 17.73 52.2649C19.2039 53.7512 20.9275 54.9666 22.8525 55.8777C23.0406 55.9668 23.2424 56.0104 23.4429 56.0104C23.7538 56.0104 24.0621 55.9053 24.313 55.702C25.1901 54.9904 26.2013 54.1465 27.1793 53.3304C27.8764 52.7487 28.5896 52.1536 29.2562 51.6049C29.654 51.8444 30.0568 52.0765 30.4657 52.2989C30.6725 52.4114 30.8993 52.4668 31.1252 52.4668C31.4258 52.4668 31.7245 52.3689 31.9718 52.1769L32.9129 51.4466L33.7988 68.6876C33.8268 69.2325 34.173 69.7097 34.6821 69.9055C34.8432 69.9674 35.0107 69.9977 35.1771 69.9977C35.5368 69.9977 35.8899 69.857 36.1537 69.5931L44.2645 61.4822C48.7055 57.0413 51.151 51.1369 51.151 44.8565V37.2935L54.3507 34.8106C63.9399 27.3693 69.78 16.1485 70.3735 4.02491L70.4064 3.35298C70.4512 2.44479 70.1052 1.55806 69.4577 0.919685ZM4.55508 33.6004L10.4701 27.6854C14.3847 23.7708 19.5882 21.6129 25.1234 21.6075L30.911 21.7775L20.6368 34.4266L4.55508 33.6004ZM25.4103 51.2102C24.6895 51.8115 23.9506 52.4281 23.2649 52.9921C21.9387 52.2738 20.739 51.3776 19.6905 50.3204C18.675 49.2965 17.8107 48.1307 17.1138 46.8466L20.0947 43.3077C20.996 44.517 21.9826 45.6624 23.0483 46.7355C23.0492 46.7363 23.05 46.737 23.0508 46.7378C23.0511 46.7381 23.0514 46.7385 23.0516 46.7388C23.0521 46.7392 23.0525 46.7394 23.0529 46.7399C24.2346 47.9291 25.5057 49.0205 26.8541 50.0075C26.378 50.4027 25.8902 50.8098 25.4103 51.2102ZM48.3901 44.8565C48.3901 50.3993 46.2318 55.6102 42.3123 59.5297L36.3972 65.4448L35.5718 49.3834L48.39 39.4365V44.8565H48.3901ZM67.616 3.89C67.0619 15.2076 61.61 25.6825 52.6582 32.6291L31.0042 49.4327C29.2085 48.3834 27.5347 47.1444 26.0028 45.7408L33.3033 38.4403C33.8424 37.9012 33.8424 37.0269 33.3033 36.4877C32.7641 35.9485 31.8898 35.9485 31.3506 36.4877L24.0571 43.7812C22.7161 42.2967 21.5285 40.6814 20.5173 38.9537L38.272 17.0949C45.07 8.72551 55.1404 3.53134 65.9009 2.84457L67.1865 2.7626C67.355 2.75215 67.4677 2.83576 67.5197 2.88692C67.5716 2.93794 67.6572 3.04892 67.649 3.21821L67.616 3.89Z" fill="white"/>
</svg>
